<svg width="20" height="16" viewBox="0 0 20 16" fill="none" xmlns="http://www.w3.org/2000/svg">
<path d="M2.50004 0.333332H16.6667C17.1087 0.333332 17.5327 0.508927 17.8452 0.821487C18.1578 1.13405 18.3334 1.55797 18.3334 2V3.66667H15V2H4.16671V12H11.6667V13.6667H2.50004C2.05801 13.6667 1.63409 13.4911 1.32153 13.1785C1.00897 12.8659 0.833374 12.442 0.833374 12V2C0.833374 1.55797 1.00897 1.13405 1.32153 0.821487C1.63409 0.508927 2.05801 0.333332 2.50004 0.333332ZM14.1667 5.33333H19.1667C19.3877 5.33333 19.5997 5.42113 19.756 5.57741C19.9122 5.73369 20 5.94565 20 6.16667V14.5C20 14.721 19.9122 14.933 19.756 15.0893C19.5997 15.2455 19.3877 15.3333 19.1667 15.3333H14.1667C13.9457 15.3333 13.7337 15.2455 13.5775 15.0893C13.4212 14.933 13.3334 14.721 13.3334 14.5V6.16667C13.3334 5.94565 13.4212 5.73369 13.5775 5.57741C13.7337 5.42113 13.9457 5.33333 14.1667 5.33333ZM15 7V12.8333H18.3334V7H15Z" fill="#1F6A73"/>
</svg>
