<svg width="19" height="19" viewBox="0 0 19 19" fill="none" xmlns="http://www.w3.org/2000/svg">
<path d="M9.375 0C4.19922 0 0 4.19922 0 9.375C0 14.5547 4.19922 18.75 9.375 18.75C14.5547 18.75 18.75 14.5547 18.75 9.375C18.75 4.19531 14.5547 0 9.375 0ZM9.375 2.34375C13.2578 2.34375 16.4062 5.49219 16.4062 9.375C16.4062 13.2578 13.2578 16.4062 9.375 16.4062C5.49219 16.4062 2.34375 13.2578 2.34375 9.375C2.34375 5.49219 5.49219 2.34375 9.375 2.34375ZM12.9414 4.85156C12.6875 4.85156 12.4531 4.94531 12.2852 5.17188C10.2539 7.91016 9.58984 8.94141 8.14453 11.8047C7.81641 11.3711 5.58203 8.97656 4.47656 8.12891C3.92188 7.70313 2.86328 9.19141 3.24219 9.57812C4.94531 11.332 7.97266 15.2344 8.46484 15.1953C9.30078 15.1289 11.3984 9.85156 14.2773 6.06641C14.5898 5.66016 13.6914 4.84375 12.9414 4.85156Z" fill="#1F6A73"/>
</svg>
