<svg width="163" height="35" viewBox="0 0 163 35" fill="none" xmlns="http://www.w3.org/2000/svg">
<path d="M12.5684 4.81641L4.92188 27H0.298828L9.93164 1.40625H12.8848L12.5684 4.81641ZM18.9668 27L11.3027 4.81641L10.9688 1.40625H13.9395L23.6074 27H18.9668ZM18.5977 17.5078V21.0059H4.67578V17.5078H18.5977ZM38.2324 7.98047H42.082V26.4727C42.082 28.1836 41.7188 29.6367 40.9922 30.832C40.2656 32.0273 39.252 32.9355 37.9512 33.5566C36.6504 34.1895 35.1445 34.5059 33.4336 34.5059C32.707 34.5059 31.8984 34.4004 31.0078 34.1895C30.1289 33.9785 29.2734 33.6387 28.4414 33.1699C27.6211 32.7129 26.9355 32.1094 26.3848 31.3594L28.3711 28.8633C29.0508 29.6719 29.8008 30.2637 30.6211 30.6387C31.4414 31.0137 32.3027 31.2012 33.2051 31.2012C34.1777 31.2012 35.0039 31.0195 35.6836 30.6562C36.375 30.3047 36.9082 29.7832 37.2832 29.0918C37.6582 28.4004 37.8457 27.5566 37.8457 26.5605V12.2871L38.2324 7.98047ZM25.3125 17.7012V17.332C25.3125 15.8906 25.4883 14.5781 25.8398 13.3945C26.1914 12.1992 26.6953 11.1738 27.3516 10.3184C28.0078 9.45117 28.8047 8.78906 29.7422 8.33203C30.6797 7.86328 31.7402 7.62891 32.9238 7.62891C34.1543 7.62891 35.2031 7.85156 36.0703 8.29688C36.9492 8.74219 37.6816 9.38086 38.2676 10.2129C38.8535 11.0332 39.3105 12.0176 39.6387 13.166C39.9785 14.3027 40.2305 15.5684 40.3945 16.9629V18.1406C40.2422 19.5 39.9844 20.7422 39.6211 21.8672C39.2578 22.9922 38.7773 23.9648 38.1797 24.7852C37.582 25.6055 36.8438 26.2383 35.9648 26.6836C35.0977 27.1289 34.0723 27.3516 32.8887 27.3516C31.7285 27.3516 30.6797 27.1113 29.7422 26.6309C28.8164 26.1504 28.0195 25.4766 27.3516 24.6094C26.6953 23.7422 26.1914 22.7227 25.8398 21.5508C25.4883 20.3672 25.3125 19.084 25.3125 17.7012ZM29.5488 17.332V17.7012C29.5488 18.5684 29.6309 19.377 29.7949 20.127C29.9707 20.877 30.2344 21.5391 30.5859 22.1133C30.9492 22.6758 31.4062 23.1211 31.957 23.4492C32.5195 23.7656 33.1816 23.9238 33.9434 23.9238C34.9395 23.9238 35.7539 23.7129 36.3867 23.291C37.0312 22.8691 37.5234 22.3008 37.8633 21.5859C38.2148 20.8594 38.4609 20.0508 38.6016 19.1602V15.9785C38.5312 15.2871 38.3848 14.6426 38.1621 14.0449C37.9512 13.4473 37.6641 12.9258 37.3008 12.4805C36.9375 12.0234 36.4805 11.6719 35.9297 11.4258C35.3789 11.168 34.7285 11.0391 33.9785 11.0391C33.2168 11.0391 32.5547 11.2031 31.9922 11.5312C31.4297 11.8594 30.9668 12.3105 30.6035 12.8848C30.252 13.459 29.9883 14.127 29.8125 14.8887C29.6367 15.6504 29.5488 16.4648 29.5488 17.332ZM45.668 17.7012V17.2969C45.668 15.9258 45.8672 14.6543 46.2656 13.4824C46.6641 12.2988 47.2383 11.2734 47.9883 10.4062C48.75 9.52734 49.6758 8.84766 50.7656 8.36719C51.8672 7.875 53.1094 7.62891 54.4922 7.62891C55.8867 7.62891 57.1289 7.875 58.2188 8.36719C59.3203 8.84766 60.252 9.52734 61.0137 10.4062C61.7754 11.2734 62.3555 12.2988 62.7539 13.4824C63.1523 14.6543 63.3516 15.9258 63.3516 17.2969V17.7012C63.3516 19.0723 63.1523 20.3438 62.7539 21.5156C62.3555 22.6875 61.7754 23.7129 61.0137 24.5918C60.252 25.459 59.3262 26.1387 58.2363 26.6309C57.1465 27.1113 55.9102 27.3516 54.5273 27.3516C53.1328 27.3516 51.8848 27.1113 50.7832 26.6309C49.6934 26.1387 48.7676 25.459 48.0059 24.5918C47.2441 23.7129 46.6641 22.6875 46.2656 21.5156C45.8672 20.3438 45.668 19.0723 45.668 17.7012ZM49.9043 17.2969V17.7012C49.9043 18.5566 49.9922 19.3652 50.168 20.127C50.3438 20.8887 50.6191 21.5566 50.9941 22.1309C51.3691 22.7051 51.8496 23.1562 52.4355 23.4844C53.0215 23.8125 53.7188 23.9766 54.5273 23.9766C55.3125 23.9766 55.9922 23.8125 56.5664 23.4844C57.1523 23.1562 57.6328 22.7051 58.0078 22.1309C58.3828 21.5566 58.6582 20.8887 58.834 20.127C59.0215 19.3652 59.1152 18.5566 59.1152 17.7012V17.2969C59.1152 16.4531 59.0215 15.6562 58.834 14.9062C58.6582 14.1445 58.377 13.4707 57.9902 12.8848C57.6152 12.2988 57.1348 11.8418 56.5488 11.5137C55.9746 11.1738 55.2891 11.0039 54.4922 11.0039C53.6953 11.0039 53.0039 11.1738 52.418 11.5137C51.8438 11.8418 51.3691 12.2988 50.9941 12.8848C50.6191 13.4707 50.3438 14.1445 50.168 14.9062C49.9922 15.6562 49.9043 16.4531 49.9043 17.2969ZM77.5723 21.8496C77.5723 21.4277 77.4668 21.0469 77.2559 20.707C77.0449 20.3555 76.6406 20.0391 76.043 19.7578C75.457 19.4766 74.5898 19.2188 73.4414 18.9844C72.4336 18.7617 71.5078 18.498 70.6641 18.1934C69.832 17.877 69.1172 17.4961 68.5195 17.0508C67.9219 16.6055 67.459 16.0781 67.1309 15.4688C66.8027 14.8594 66.6387 14.1562 66.6387 13.3594C66.6387 12.5859 66.8086 11.8535 67.1484 11.1621C67.4883 10.4707 67.9746 9.86133 68.6074 9.33398C69.2402 8.80664 70.0078 8.39062 70.9102 8.08594C71.8242 7.78125 72.8438 7.62891 73.9688 7.62891C75.5625 7.62891 76.9277 7.89844 78.0645 8.4375C79.2129 8.96484 80.0918 9.68555 80.7012 10.5996C81.3105 11.502 81.6152 12.5215 81.6152 13.6582H77.3789C77.3789 13.1543 77.25 12.6855 76.9922 12.252C76.7461 11.8066 76.3711 11.4492 75.8672 11.1797C75.3633 10.8984 74.7305 10.7578 73.9688 10.7578C73.2422 10.7578 72.6387 10.875 72.1582 11.1094C71.6895 11.332 71.3379 11.625 71.1035 11.9883C70.8809 12.3516 70.7695 12.75 70.7695 13.1836C70.7695 13.5 70.8281 13.7871 70.9453 14.0449C71.0742 14.291 71.2852 14.5195 71.5781 14.7305C71.8711 14.9297 72.2695 15.1172 72.7734 15.293C73.2891 15.4688 73.9336 15.6387 74.707 15.8027C76.1602 16.1074 77.4082 16.5 78.4512 16.9805C79.5059 17.4492 80.3145 18.0586 80.877 18.8086C81.4395 19.5469 81.7207 20.4844 81.7207 21.6211C81.7207 22.4648 81.5391 23.2383 81.1758 23.9414C80.8242 24.6328 80.3086 25.2363 79.6289 25.752C78.9492 26.2559 78.1348 26.6484 77.1855 26.9297C76.248 27.2109 75.1934 27.3516 74.0215 27.3516C72.2988 27.3516 70.8398 27.0469 69.6445 26.4375C68.4492 25.8164 67.541 25.0254 66.9199 24.0645C66.3105 23.0918 66.0059 22.084 66.0059 21.041H70.1016C70.1484 21.8262 70.3652 22.4531 70.752 22.9219C71.1504 23.3789 71.6426 23.7129 72.2285 23.9238C72.8262 24.123 73.4414 24.2227 74.0742 24.2227C74.8359 24.2227 75.4746 24.123 75.9902 23.9238C76.5059 23.7129 76.8984 23.4316 77.168 23.0801C77.4375 22.7168 77.5723 22.3066 77.5723 21.8496ZM94.1484 7.98047V11.0742H83.4258V7.98047H94.1484ZM86.5195 3.32227H90.7559V21.7441C90.7559 22.3301 90.8379 22.7812 91.002 23.0977C91.1777 23.4023 91.418 23.6074 91.7227 23.7129C92.0273 23.8184 92.3848 23.8711 92.7949 23.8711C93.0879 23.8711 93.3691 23.8535 93.6387 23.8184C93.9082 23.7832 94.125 23.748 94.2891 23.7129L94.3066 26.9473C93.9551 27.0527 93.5449 27.1465 93.0762 27.2285C92.6191 27.3105 92.0918 27.3516 91.4941 27.3516C90.5215 27.3516 89.6602 27.1816 88.9102 26.8418C88.1602 26.4902 87.5742 25.9219 87.1523 25.1367C86.7305 24.3516 86.5195 23.3086 86.5195 22.0078V3.32227ZM101.953 7.98047V27H97.6992V7.98047H101.953ZM97.418 2.98828C97.418 2.34375 97.6289 1.81055 98.0508 1.38867C98.4844 0.955078 99.082 0.738281 99.8438 0.738281C100.594 0.738281 101.186 0.955078 101.619 1.38867C102.053 1.81055 102.27 2.34375 102.27 2.98828C102.27 3.62109 102.053 4.14844 101.619 4.57031C101.186 4.99219 100.594 5.20312 99.8438 5.20312C99.082 5.20312 98.4844 4.99219 98.0508 4.57031C97.6289 4.14844 97.418 3.62109 97.418 2.98828ZM110.795 12.041V27H106.559V7.98047H110.549L110.795 12.041ZM110.039 16.7871L108.668 16.7695C108.68 15.4219 108.867 14.1855 109.23 13.0605C109.605 11.9355 110.121 10.9688 110.777 10.1602C111.445 9.35156 112.242 8.73047 113.168 8.29688C114.094 7.85156 115.125 7.62891 116.262 7.62891C117.176 7.62891 118.002 7.75781 118.74 8.01562C119.49 8.26172 120.129 8.66602 120.656 9.22852C121.195 9.79102 121.605 10.5234 121.887 11.4258C122.168 12.3164 122.309 13.4121 122.309 14.7129V27H118.055V14.6953C118.055 13.7812 117.92 13.0605 117.65 12.5332C117.393 11.9941 117.012 11.6133 116.508 11.3906C116.016 11.1562 115.4 11.0391 114.662 11.0391C113.936 11.0391 113.285 11.1914 112.711 11.4961C112.137 11.8008 111.65 12.2168 111.252 12.7441C110.865 13.2715 110.566 13.8809 110.355 14.5723C110.145 15.2637 110.039 16.002 110.039 16.7871ZM130.816 0V27H126.598V0H130.816ZM130.078 16.7871L128.707 16.7695C128.719 15.457 128.9 14.2441 129.252 13.1309C129.615 12.0176 130.119 11.0508 130.764 10.2305C131.42 9.39844 132.205 8.75977 133.119 8.31445C134.033 7.85742 135.047 7.62891 136.16 7.62891C137.098 7.62891 137.941 7.75781 138.691 8.01562C139.453 8.27344 140.109 8.68945 140.66 9.26367C141.211 9.82617 141.627 10.5645 141.908 11.4785C142.201 12.3809 142.348 13.4824 142.348 14.7832V27H138.094V14.748C138.094 13.834 137.959 13.1074 137.689 12.5684C137.432 12.0293 137.051 11.6426 136.547 11.4082C136.043 11.1621 135.428 11.0391 134.701 11.0391C133.939 11.0391 133.266 11.1914 132.68 11.4961C132.105 11.8008 131.625 12.2168 131.238 12.7441C130.852 13.2715 130.559 13.8809 130.359 14.5723C130.172 15.2637 130.078 16.002 130.078 16.7871ZM155.021 27.3516C153.615 27.3516 152.344 27.123 151.207 26.666C150.082 26.1973 149.121 25.5469 148.324 24.7148C147.539 23.8828 146.936 22.9043 146.514 21.7793C146.092 20.6543 145.881 19.4414 145.881 18.1406V17.4375C145.881 15.9492 146.098 14.6016 146.531 13.3945C146.965 12.1875 147.568 11.1562 148.342 10.3008C149.115 9.43359 150.029 8.77148 151.084 8.31445C152.139 7.85742 153.281 7.62891 154.512 7.62891C155.871 7.62891 157.061 7.85742 158.08 8.31445C159.1 8.77148 159.943 9.41602 160.611 10.248C161.291 11.0684 161.795 12.0469 162.123 13.1836C162.463 14.3203 162.633 15.5742 162.633 16.9453V18.7559H147.938V15.7148H158.449V15.3809C158.426 14.6191 158.273 13.9043 157.992 13.2363C157.723 12.5684 157.307 12.0293 156.744 11.6191C156.182 11.209 155.432 11.0039 154.494 11.0039C153.791 11.0039 153.164 11.1562 152.613 11.4609C152.074 11.7539 151.623 12.1816 151.26 12.7441C150.896 13.3066 150.615 13.9863 150.416 14.7832C150.229 15.5684 150.135 16.4531 150.135 17.4375V18.1406C150.135 18.9727 150.246 19.7461 150.469 20.4609C150.703 21.1641 151.043 21.7793 151.488 22.3066C151.934 22.834 152.473 23.25 153.105 23.5547C153.738 23.8477 154.459 23.9941 155.268 23.9941C156.287 23.9941 157.195 23.7891 157.992 23.3789C158.789 22.9688 159.48 22.3887 160.066 21.6387L162.299 23.8008C161.889 24.3984 161.355 24.9727 160.699 25.5234C160.043 26.0625 159.24 26.502 158.291 26.8418C157.354 27.1816 156.264 27.3516 155.021 27.3516Z" fill="white"/>
</svg>
