<svg width="16" height="17" viewBox="0 0 16 17" fill="none" xmlns="http://www.w3.org/2000/svg">
<path d="M14.25 1.5H12.375V0.875C12.375 0.70924 12.3092 0.550268 12.1919 0.433058C12.0747 0.315848 11.9158 0.25 11.75 0.25C11.5842 0.25 11.4253 0.315848 11.3081 0.433058C11.1908 0.550268 11.125 0.70924 11.125 0.875V1.5H4.875V0.875C4.875 0.70924 4.80915 0.550268 4.69194 0.433058C4.57473 0.315848 4.41576 0.25 4.25 0.25C4.08424 0.25 3.92527 0.315848 3.80806 0.433058C3.69085 0.550268 3.625 0.70924 3.625 0.875V1.5H1.75C1.41848 1.5 1.10054 1.6317 0.866116 1.86612C0.631696 2.10054 0.5 2.41848 0.5 2.75V15.25C0.5 15.5815 0.631696 15.8995 0.866116 16.1339C1.10054 16.3683 1.41848 16.5 1.75 16.5H14.25C14.5815 16.5 14.8995 16.3683 15.1339 16.1339C15.3683 15.8995 15.5 15.5815 15.5 15.25V2.75C15.5 2.41848 15.3683 2.10054 15.1339 1.86612C14.8995 1.6317 14.5815 1.5 14.25 1.5ZM3.625 2.75V3.375C3.625 3.54076 3.69085 3.69973 3.80806 3.81694C3.92527 3.93415 4.08424 4 4.25 4C4.41576 4 4.57473 3.93415 4.69194 3.81694C4.80915 3.69973 4.875 3.54076 4.875 3.375V2.75H11.125V3.375C11.125 3.54076 11.1908 3.69973 11.3081 3.81694C11.4253 3.93415 11.5842 4 11.75 4C11.9158 4 12.0747 3.93415 12.1919 3.81694C12.3092 3.69973 12.375 3.54076 12.375 3.375V2.75H14.25V5.25H1.75V2.75H3.625ZM14.25 15.25H1.75V6.5H14.25V15.25ZM6.75 8.375V13.375C6.75 13.5408 6.68415 13.6997 6.56694 13.8169C6.44973 13.9342 6.29076 14 6.125 14C5.95924 14 5.80027 13.9342 5.68306 13.8169C5.56585 13.6997 5.5 13.5408 5.5 13.375V9.38594L5.15469 9.55938C5.00633 9.63355 4.83459 9.64576 4.67723 9.59331C4.51988 9.54086 4.3898 9.42804 4.31562 9.27969C4.24145 9.13133 4.22924 8.95959 4.28169 8.80223C4.33414 8.64488 4.44696 8.5148 4.59531 8.44062L5.84531 7.81562C5.94063 7.76793 6.04657 7.7454 6.15305 7.75018C6.25954 7.75497 6.36303 7.7869 6.45369 7.84296C6.54435 7.89902 6.61916 7.97733 6.67103 8.07045C6.72289 8.16357 6.75008 8.26841 6.75 8.375ZM11.3719 10.7539L9.875 12.75H11.125C11.2908 12.75 11.4497 12.8158 11.5669 12.9331C11.6842 13.0503 11.75 13.2092 11.75 13.375C11.75 13.5408 11.6842 13.6997 11.5669 13.8169C11.4497 13.9342 11.2908 14 11.125 14H8.625C8.50893 14 8.39515 13.9677 8.29642 13.9067C8.19768 13.8456 8.11789 13.7583 8.06598 13.6545C8.01408 13.5507 7.9921 13.4345 8.00252 13.3189C8.01295 13.2033 8.05536 13.0929 8.125 13L10.3734 10.0023C10.4246 9.93426 10.4613 9.85644 10.4813 9.77367C10.5012 9.69089 10.5041 9.60491 10.4897 9.52098C10.4752 9.43707 10.4438 9.35698 10.3973 9.28565C10.3508 9.21431 10.2902 9.15324 10.2192 9.10616C10.1483 9.05909 10.0684 9.02701 9.98464 9.01189C9.90084 8.99678 9.81483 8.99895 9.7319 9.01828C9.64897 9.0376 9.57086 9.07366 9.50236 9.12426C9.43387 9.17485 9.37644 9.23891 9.33359 9.3125C9.29377 9.38585 9.23965 9.45047 9.17444 9.50256C9.10923 9.55466 9.03425 9.59316 8.95392 9.61581C8.87359 9.63845 8.78954 9.64478 8.70673 9.63441C8.62391 9.62405 8.54401 9.5972 8.47174 9.55545C8.39947 9.51371 8.33629 9.45791 8.28593 9.39135C8.23557 9.3248 8.19906 9.24883 8.17853 9.16793C8.15801 9.08703 8.1539 9.00284 8.16644 8.92033C8.17899 8.83781 8.20793 8.75865 8.25156 8.6875C8.45802 8.33022 8.77656 8.05103 9.15782 7.8932C9.53908 7.73537 9.96176 7.70772 10.3603 7.81453C10.7589 7.92133 11.1111 8.15664 11.3624 8.48397C11.6136 8.8113 11.7499 9.21236 11.75 9.625C11.7513 10.0326 11.6184 10.4293 11.3719 10.7539Z" fill="#1F6A73"/>
</svg>
