<svg width="24" height="24" viewBox="0 0 24 24" fill="none" xmlns="http://www.w3.org/2000/svg">
<path d="M12.6583 19.5L4.5 11.3417V13.0083C4.5 13.45 4.675 13.875 4.99167 14.1833L11.4833 20.675C12.1333 21.325 13.1917 21.325 13.8417 20.675L19.0167 15.5C19.6667 14.85 19.6667 13.7917 19.0167 13.1417L12.6583 19.5Z" fill="#1F6A73"/>
<path d="M11.4833 16.5083C11.8083 16.8333 12.2333 17 12.6583 17C13.0833 17 13.5083 16.8333 13.8333 16.5083L19.0083 11.3333C19.6583 10.6833 19.6583 9.625 19.0083 8.975L12.5167 2.48333C12.2083 2.175 11.7833 2 11.3417 2H6.16667C5.25 2 4.5 2.75 4.5 3.66667V8.84167C4.5 9.28333 4.675 9.70833 4.99167 10.0167L11.4833 16.5083ZM6.16667 3.66667H11.3417L17.8333 10.1583L12.6583 15.3333L6.16667 8.84167V3.66667Z" fill="#1F6A73"/>
<path d="M8.04167 6.58333C8.61696 6.58333 9.08333 6.11696 9.08333 5.54167C9.08333 4.96637 8.61696 4.5 8.04167 4.5C7.46637 4.5 7 4.96637 7 5.54167C7 6.11696 7.46637 6.58333 8.04167 6.58333Z" fill="#1F6A73"/>
</svg>
