<svg width="16" height="15" viewBox="0 0 16 15" fill="none" xmlns="http://www.w3.org/2000/svg">
<path d="M7.24998 1.00001C6.55998 1.00001 5.89898 1.13001 5.29298 1.37101C5.10812 1.44448 4.96002 1.58837 4.88125 1.77103C4.80249 1.95369 4.79951 2.16016 4.87298 2.34501C4.94644 2.52987 5.09033 2.67797 5.27299 2.75673C5.45565 2.8355 5.66212 2.83848 5.84698 2.76501C6.27698 2.59501 6.74998 2.50001 7.24998 2.50001C8.02694 2.49414 8.78624 2.73171 9.42131 3.17936C10.0564 3.62701 10.5353 4.26228 10.791 4.99601C10.8421 5.14329 10.9379 5.27097 11.0649 5.3613C11.192 5.45163 11.3441 5.50011 11.5 5.50001C13.176 5.50001 14.5 6.82401 14.5 8.50001C14.5039 9.19985 14.263 9.87904 13.819 10.42C13.6986 10.574 13.6431 10.7688 13.6643 10.9631C13.6854 11.1573 13.7815 11.3357 13.9322 11.4601C14.0828 11.5846 14.2761 11.6453 14.4709 11.6294C14.6656 11.6135 14.8465 11.5222 14.975 11.375C15.6414 10.5655 16.004 9.54855 16 8.50001C16.0064 7.39419 15.6028 6.32522 14.8672 5.49951C14.1316 4.6738 13.1162 4.14991 12.017 4.02901C11.5965 3.12021 10.9235 2.35148 10.0783 1.81443C9.23312 1.27739 8.25134 0.994687 7.24998 1.00001ZM0.719976 0.720011C0.860601 0.579561 1.05123 0.500671 1.24998 0.500671C1.44873 0.500671 1.63935 0.579561 1.77998 0.720011L4.09098 3.03001C4.12098 3.05501 4.14698 3.08201 4.17098 3.11001L12.702 11.642L12.737 11.676L14.78 13.72C14.8787 13.8117 14.9509 13.9283 14.9889 14.0575C15.0269 14.1868 15.0293 14.3239 14.996 14.4544C14.9626 14.5849 14.8946 14.704 14.7993 14.7992C14.7039 14.8943 14.5846 14.962 14.454 14.995C14.3236 15.0284 14.1866 15.0261 14.0575 14.9883C13.9283 14.9504 13.8117 14.8785 13.72 14.78L11.92 12.981C11.7803 12.9938 11.6402 13.0002 11.5 13H3.49998C3.03938 13.0035 2.5827 12.9153 2.1565 12.7406C1.7303 12.566 1.34309 12.3083 1.01739 11.9826C0.691692 11.6569 0.434015 11.2697 0.259349 10.8435C0.0846834 10.4173 -0.00348427 9.9606 -2.40313e-05 9.50001C-2.40313e-05 8.09001 0.808976 6.88601 2.00098 6.33001C1.98251 5.41447 2.2053 4.51019 2.64698 3.70801L0.719976 1.78001C0.579526 1.63939 0.500636 1.44876 0.500636 1.25001C0.500636 1.05126 0.579526 0.860637 0.719976 0.720011ZM3.49998 6.25001C3.50398 6.41101 3.51798 6.57201 3.54098 6.73101C3.56719 6.91411 3.52482 7.10043 3.42201 7.25418C3.3192 7.40794 3.16319 7.51828 2.98398 7.56401C2.12398 7.78401 1.49998 8.55001 1.49998 9.50001C1.49998 10.624 2.37598 11.5 3.49998 11.5H10.44L3.77098 4.83201C3.59057 5.28293 3.49857 5.76434 3.49998 6.25001Z" fill="#1F6A73"/>
</svg>
